<mxfile host="app.diagrams.net" agent="Mozilla/5.0 (Windows NT 10.0; Win64; x64) AppleWebKit/537.36 (KHTML, like Gecko) Chrome/137.0.0.0 Safari/537.36" version="24.9.0">
  <diagram name="Page-1" id="2MJwaSzXnLlVygN0vV5k">
    <mxGraphModel dx="2490" dy="1060" grid="1" gridSize="10" guides="1" tooltips="1" connect="1" arrows="1" fold="1" page="1" pageScale="1" pageWidth="850" pageHeight="1100" math="0" shadow="0">
      <root>
        <mxCell id="0" />
        <mxCell id="1" parent="0" />
        <mxCell id="nSxIS794gCqlsMwG4T0Y-1" value="Hệ thống Quản lí tiêm chủng vaccine cho thú cưng" style="ellipse;whiteSpace=wrap;html=1;" vertex="1" parent="1">
          <mxGeometry x="560" y="640" width="150" height="100" as="geometry" />
        </mxCell>
        <mxCell id="nSxIS794gCqlsMwG4T0Y-2" value="Khách hàng" style="rounded=0;whiteSpace=wrap;html=1;" vertex="1" parent="1">
          <mxGeometry x="230" y="890" width="120" height="60" as="geometry" />
        </mxCell>
        <mxCell id="nSxIS794gCqlsMwG4T0Y-3" value="Nhân viên&amp;nbsp;" style="rounded=0;whiteSpace=wrap;html=1;" vertex="1" parent="1">
          <mxGeometry x="670" y="960" width="120" height="60" as="geometry" />
        </mxCell>
        <mxCell id="nSxIS794gCqlsMwG4T0Y-4" value="Bác sĩ thú y" style="rounded=0;whiteSpace=wrap;html=1;" vertex="1" parent="1">
          <mxGeometry x="1000" y="760" width="120" height="60" as="geometry" />
        </mxCell>
        <mxCell id="nSxIS794gCqlsMwG4T0Y-5" value="Quản trị viên" style="rounded=0;whiteSpace=wrap;html=1;" vertex="1" parent="1">
          <mxGeometry x="575" y="360" width="120" height="60" as="geometry" />
        </mxCell>
        <mxCell id="nSxIS794gCqlsMwG4T0Y-6" value="Cổng thanh toán" style="rounded=0;whiteSpace=wrap;html=1;" vertex="1" parent="1">
          <mxGeometry x="1020" y="520" width="120" height="60" as="geometry" />
        </mxCell>
        <mxCell id="nSxIS794gCqlsMwG4T0Y-7" value="Database" style="rounded=0;whiteSpace=wrap;html=1;" vertex="1" parent="1">
          <mxGeometry x="170" y="620" width="120" height="60" as="geometry" />
        </mxCell>
        <mxCell id="nSxIS794gCqlsMwG4T0Y-8" value="" style="endArrow=classic;html=1;rounded=0;entryX=0.074;entryY=0.809;entryDx=0;entryDy=0;entryPerimeter=0;exitX=0.25;exitY=0;exitDx=0;exitDy=0;" edge="1" parent="1" source="nSxIS794gCqlsMwG4T0Y-2" target="nSxIS794gCqlsMwG4T0Y-1">
          <mxGeometry width="50" height="50" relative="1" as="geometry">
            <mxPoint x="200" y="805" as="sourcePoint" />
            <mxPoint x="540" y="750" as="targetPoint" />
            <Array as="points">
              <mxPoint x="351.03999999999996" y="805.35" />
            </Array>
          </mxGeometry>
        </mxCell>
        <mxCell id="nSxIS794gCqlsMwG4T0Y-9" value="Đăng ký/Đăng nhập&lt;div&gt;Yêu cầu đặt lịch&lt;/div&gt;&lt;div&gt;Thanh toán&lt;/div&gt;" style="edgeLabel;html=1;align=center;verticalAlign=middle;resizable=0;points=[];" vertex="1" connectable="0" parent="nSxIS794gCqlsMwG4T0Y-8">
          <mxGeometry x="0.0648" y="3" relative="1" as="geometry">
            <mxPoint x="-73" y="32" as="offset" />
          </mxGeometry>
        </mxCell>
        <mxCell id="nSxIS794gCqlsMwG4T0Y-10" value="" style="endArrow=classic;html=1;rounded=0;exitX=0.277;exitY=0.985;exitDx=0;exitDy=0;exitPerimeter=0;entryX=1;entryY=0;entryDx=0;entryDy=0;" edge="1" parent="1" source="nSxIS794gCqlsMwG4T0Y-1" target="nSxIS794gCqlsMwG4T0Y-2">
          <mxGeometry width="50" height="50" relative="1" as="geometry">
            <mxPoint x="700" y="830" as="sourcePoint" />
            <mxPoint x="580" y="920" as="targetPoint" />
            <Array as="points">
              <mxPoint x="500" y="850" />
            </Array>
          </mxGeometry>
        </mxCell>
        <mxCell id="nSxIS794gCqlsMwG4T0Y-11" value="Xác nhận lịch hẹn ,&lt;div&gt;thông báo,lịch tiêm&amp;nbsp;&lt;/div&gt;" style="edgeLabel;html=1;align=center;verticalAlign=middle;resizable=0;points=[];" vertex="1" connectable="0" parent="nSxIS794gCqlsMwG4T0Y-10">
          <mxGeometry x="-0.1426" y="1" relative="1" as="geometry">
            <mxPoint x="-14" y="13" as="offset" />
          </mxGeometry>
        </mxCell>
        <mxCell id="nSxIS794gCqlsMwG4T0Y-12" value="" style="endArrow=classic;html=1;rounded=0;entryX=0.224;entryY=0.038;entryDx=0;entryDy=0;entryPerimeter=0;exitX=0.25;exitY=1;exitDx=0;exitDy=0;" edge="1" parent="1" source="nSxIS794gCqlsMwG4T0Y-5" target="nSxIS794gCqlsMwG4T0Y-1">
          <mxGeometry width="50" height="50" relative="1" as="geometry">
            <mxPoint x="560" y="620" as="sourcePoint" />
            <mxPoint x="615" y="520" as="targetPoint" />
            <Array as="points">
              <mxPoint x="560" y="550" />
            </Array>
          </mxGeometry>
        </mxCell>
        <mxCell id="nSxIS794gCqlsMwG4T0Y-13" value="Thêm/xóa loại vaccine,&lt;div&gt;tài khoản, xem báo cáo&lt;/div&gt;" style="edgeLabel;html=1;align=center;verticalAlign=middle;resizable=0;points=[];" vertex="1" connectable="0" parent="nSxIS794gCqlsMwG4T0Y-12">
          <mxGeometry x="0.2218" y="-1" relative="1" as="geometry">
            <mxPoint x="-1" y="-17" as="offset" />
          </mxGeometry>
        </mxCell>
        <mxCell id="nSxIS794gCqlsMwG4T0Y-14" value="" style="endArrow=classic;html=1;rounded=0;exitX=0.758;exitY=0.056;exitDx=0;exitDy=0;exitPerimeter=0;entryX=0.75;entryY=1;entryDx=0;entryDy=0;" edge="1" parent="1" source="nSxIS794gCqlsMwG4T0Y-1" target="nSxIS794gCqlsMwG4T0Y-5">
          <mxGeometry width="50" height="50" relative="1" as="geometry">
            <mxPoint x="700" y="600" as="sourcePoint" />
            <mxPoint x="645" y="480" as="targetPoint" />
            <Array as="points">
              <mxPoint x="710" y="550" />
            </Array>
          </mxGeometry>
        </mxCell>
        <mxCell id="nSxIS794gCqlsMwG4T0Y-15" value="Thống kê doanh thu,&lt;div&gt;tồn kho váccine&lt;/div&gt;" style="edgeLabel;html=1;align=center;verticalAlign=middle;resizable=0;points=[];" vertex="1" connectable="0" parent="nSxIS794gCqlsMwG4T0Y-14">
          <mxGeometry x="-0.1811" y="1" relative="1" as="geometry">
            <mxPoint x="-15" y="-53" as="offset" />
          </mxGeometry>
        </mxCell>
        <mxCell id="nSxIS794gCqlsMwG4T0Y-16" value="" style="endArrow=classic;html=1;rounded=0;exitX=0.25;exitY=0;exitDx=0;exitDy=0;entryX=0.613;entryY=1.007;entryDx=0;entryDy=0;entryPerimeter=0;" edge="1" parent="1" source="nSxIS794gCqlsMwG4T0Y-3" target="nSxIS794gCqlsMwG4T0Y-1">
          <mxGeometry width="50" height="50" relative="1" as="geometry">
            <mxPoint x="710" y="900" as="sourcePoint" />
            <mxPoint x="650" y="920" as="targetPoint" />
            <Array as="points">
              <mxPoint x="660" y="870" />
            </Array>
          </mxGeometry>
        </mxCell>
        <mxCell id="nSxIS794gCqlsMwG4T0Y-17" value="CHeck-in,cập nhật ,&lt;div&gt;thanh toán,&lt;span style=&quot;background-color: light-dark(#ffffff, var(--ge-dark-color, #121212)); color: light-dark(rgb(0, 0, 0), rgb(255, 255, 255));&quot;&gt;phân bổ&lt;/span&gt;&lt;/div&gt;" style="edgeLabel;html=1;align=center;verticalAlign=middle;resizable=0;points=[];" vertex="1" connectable="0" parent="nSxIS794gCqlsMwG4T0Y-16">
          <mxGeometry x="-0.137" y="1" relative="1" as="geometry">
            <mxPoint x="1" as="offset" />
          </mxGeometry>
        </mxCell>
        <mxCell id="nSxIS794gCqlsMwG4T0Y-18" value="" style="endArrow=classic;html=1;rounded=0;exitX=1;exitY=1;exitDx=0;exitDy=0;entryX=0.65;entryY=-0.016;entryDx=0;entryDy=0;entryPerimeter=0;" edge="1" parent="1" source="nSxIS794gCqlsMwG4T0Y-1" target="nSxIS794gCqlsMwG4T0Y-3">
          <mxGeometry width="50" height="50" relative="1" as="geometry">
            <mxPoint x="740" y="830" as="sourcePoint" />
            <mxPoint x="720" y="910" as="targetPoint" />
            <Array as="points">
              <mxPoint x="780" y="830" />
            </Array>
          </mxGeometry>
        </mxCell>
        <mxCell id="nSxIS794gCqlsMwG4T0Y-19" value="Danh sách lịch hẹn,&lt;div&gt;thông tin khách hàng&lt;/div&gt;" style="edgeLabel;html=1;align=center;verticalAlign=middle;resizable=0;points=[];" vertex="1" connectable="0" parent="nSxIS794gCqlsMwG4T0Y-18">
          <mxGeometry x="0.2674" relative="1" as="geometry">
            <mxPoint x="8" y="-33" as="offset" />
          </mxGeometry>
        </mxCell>
        <mxCell id="nSxIS794gCqlsMwG4T0Y-20" value="" style="endArrow=classic;html=1;rounded=0;exitX=0;exitY=0.75;exitDx=0;exitDy=0;entryX=0.996;entryY=0.678;entryDx=0;entryDy=0;entryPerimeter=0;" edge="1" parent="1" source="nSxIS794gCqlsMwG4T0Y-4" target="nSxIS794gCqlsMwG4T0Y-1">
          <mxGeometry width="50" height="50" relative="1" as="geometry">
            <mxPoint x="740" y="730" as="sourcePoint" />
            <mxPoint x="840" y="700" as="targetPoint" />
            <Array as="points">
              <mxPoint x="850" y="770" />
            </Array>
          </mxGeometry>
        </mxCell>
        <mxCell id="nSxIS794gCqlsMwG4T0Y-21" value="Kết quả khám,xác nhận tiêm,&lt;div&gt;phản ứng sau tiêm&lt;/div&gt;" style="edgeLabel;html=1;align=center;verticalAlign=middle;resizable=0;points=[];" vertex="1" connectable="0" parent="nSxIS794gCqlsMwG4T0Y-20">
          <mxGeometry x="0.2112" y="-1" relative="1" as="geometry">
            <mxPoint x="29" y="14" as="offset" />
          </mxGeometry>
        </mxCell>
        <mxCell id="nSxIS794gCqlsMwG4T0Y-22" value="" style="endArrow=classic;html=1;rounded=0;exitX=1;exitY=0.5;exitDx=0;exitDy=0;entryX=0;entryY=0;entryDx=0;entryDy=0;" edge="1" parent="1" source="nSxIS794gCqlsMwG4T0Y-1" target="nSxIS794gCqlsMwG4T0Y-4">
          <mxGeometry width="50" height="50" relative="1" as="geometry">
            <mxPoint x="770" y="700" as="sourcePoint" />
            <mxPoint x="820" y="650" as="targetPoint" />
            <Array as="points">
              <mxPoint x="880" y="710" />
            </Array>
          </mxGeometry>
        </mxCell>
        <mxCell id="nSxIS794gCqlsMwG4T0Y-23" value="Lịch tiêm, hồ sơ thú cưng" style="edgeLabel;html=1;align=center;verticalAlign=middle;resizable=0;points=[];" vertex="1" connectable="0" parent="nSxIS794gCqlsMwG4T0Y-22">
          <mxGeometry x="0.0494" y="-3" relative="1" as="geometry">
            <mxPoint x="4" as="offset" />
          </mxGeometry>
        </mxCell>
        <mxCell id="nSxIS794gCqlsMwG4T0Y-24" value="" style="endArrow=classic;html=1;rounded=0;exitX=0;exitY=0.75;exitDx=0;exitDy=0;entryX=0.971;entryY=0.339;entryDx=0;entryDy=0;entryPerimeter=0;" edge="1" parent="1" source="nSxIS794gCqlsMwG4T0Y-6" target="nSxIS794gCqlsMwG4T0Y-1">
          <mxGeometry width="50" height="50" relative="1" as="geometry">
            <mxPoint x="750" y="660" as="sourcePoint" />
            <mxPoint x="810" y="590" as="targetPoint" />
            <Array as="points">
              <mxPoint x="880" y="640" />
            </Array>
          </mxGeometry>
        </mxCell>
        <mxCell id="nSxIS794gCqlsMwG4T0Y-25" value="yêu cầu thnah toán" style="edgeLabel;html=1;align=center;verticalAlign=middle;resizable=0;points=[];" vertex="1" connectable="0" parent="nSxIS794gCqlsMwG4T0Y-24">
          <mxGeometry x="-0.2132" y="2" relative="1" as="geometry">
            <mxPoint as="offset" />
          </mxGeometry>
        </mxCell>
        <mxCell id="nSxIS794gCqlsMwG4T0Y-26" value="" style="endArrow=classic;html=1;rounded=0;exitX=1;exitY=0;exitDx=0;exitDy=0;entryX=0;entryY=0.25;entryDx=0;entryDy=0;" edge="1" parent="1" source="nSxIS794gCqlsMwG4T0Y-1" target="nSxIS794gCqlsMwG4T0Y-6">
          <mxGeometry width="50" height="50" relative="1" as="geometry">
            <mxPoint x="730" y="620" as="sourcePoint" />
            <mxPoint x="780" y="570" as="targetPoint" />
            <Array as="points">
              <mxPoint x="840" y="580" />
            </Array>
          </mxGeometry>
        </mxCell>
        <mxCell id="nSxIS794gCqlsMwG4T0Y-27" value="Đã thanh toán/chưa thanh toán" style="edgeLabel;html=1;align=center;verticalAlign=middle;resizable=0;points=[];" vertex="1" connectable="0" parent="nSxIS794gCqlsMwG4T0Y-26">
          <mxGeometry x="0.0742" y="-5" relative="1" as="geometry">
            <mxPoint as="offset" />
          </mxGeometry>
        </mxCell>
        <mxCell id="nSxIS794gCqlsMwG4T0Y-28" value="" style="endArrow=classic;html=1;rounded=0;entryX=1;entryY=0.75;entryDx=0;entryDy=0;exitX=0;exitY=0.6;exitDx=0;exitDy=0;exitPerimeter=0;" edge="1" parent="1" source="nSxIS794gCqlsMwG4T0Y-1" target="nSxIS794gCqlsMwG4T0Y-7">
          <mxGeometry width="50" height="50" relative="1" as="geometry">
            <mxPoint x="400" y="690" as="sourcePoint" />
            <mxPoint x="450" y="640" as="targetPoint" />
            <Array as="points">
              <mxPoint x="420" y="710" />
            </Array>
          </mxGeometry>
        </mxCell>
        <mxCell id="nSxIS794gCqlsMwG4T0Y-29" value="Cập nhật dữ liệu" style="edgeLabel;html=1;align=center;verticalAlign=middle;resizable=0;points=[];" vertex="1" connectable="0" parent="nSxIS794gCqlsMwG4T0Y-28">
          <mxGeometry x="0.3072" y="-3" relative="1" as="geometry">
            <mxPoint x="8" y="6" as="offset" />
          </mxGeometry>
        </mxCell>
        <mxCell id="nSxIS794gCqlsMwG4T0Y-30" value="" style="endArrow=classic;html=1;rounded=0;exitX=1;exitY=0.25;exitDx=0;exitDy=0;entryX=0.067;entryY=0.2;entryDx=0;entryDy=0;entryPerimeter=0;" edge="1" parent="1" source="nSxIS794gCqlsMwG4T0Y-7" target="nSxIS794gCqlsMwG4T0Y-1">
          <mxGeometry width="50" height="50" relative="1" as="geometry">
            <mxPoint x="400" y="640" as="sourcePoint" />
            <mxPoint x="450" y="590" as="targetPoint" />
            <Array as="points">
              <mxPoint x="410" y="620" />
            </Array>
          </mxGeometry>
        </mxCell>
        <mxCell id="nSxIS794gCqlsMwG4T0Y-31" value="truy vấn dữ liệu" style="edgeLabel;html=1;align=center;verticalAlign=middle;resizable=0;points=[];" vertex="1" connectable="0" parent="nSxIS794gCqlsMwG4T0Y-30">
          <mxGeometry x="0.022" y="-3" relative="1" as="geometry">
            <mxPoint x="-23" y="-9" as="offset" />
          </mxGeometry>
        </mxCell>
      </root>
    </mxGraphModel>
  </diagram>
</mxfile>
